<mxfile host="app.diagrams.net" agent="Mozilla/5.0 (Windows NT 10.0; Win64; x64) AppleWebKit/537.36 (KHTML, like Gecko) Chrome/136.0.0.0 Safari/537.36" version="27.1.1">
  <diagram name="Page-1" id="c7488fd3-1785-93aa-aadb-54a6760d102a">
    <mxGraphModel dx="1042" dy="630" grid="1" gridSize="10" guides="1" tooltips="1" connect="1" arrows="1" fold="1" page="1" pageScale="1" pageWidth="1100" pageHeight="850" background="#ffffff" math="0" shadow="0">
      <root>
        <mxCell id="0" />
        <mxCell id="1" parent="0" />
        <mxCell id="lfPdQ3ZHWV3x0kOP0yHL-1" value="" style="rounded=0;whiteSpace=wrap;html=1;" vertex="1" parent="1">
          <mxGeometry x="40" y="40" width="1000" height="770" as="geometry" />
        </mxCell>
        <mxCell id="lfPdQ3ZHWV3x0kOP0yHL-4" value="" style="rounded=0;whiteSpace=wrap;html=1;" vertex="1" parent="1">
          <mxGeometry x="40" y="40" width="1000" height="160" as="geometry" />
        </mxCell>
        <mxCell id="lfPdQ3ZHWV3x0kOP0yHL-5" value="手机号/邮箱、密码登录" style="rounded=0;whiteSpace=wrap;html=1;" vertex="1" parent="1">
          <mxGeometry x="150" y="80" width="210" height="60" as="geometry" />
        </mxCell>
        <mxCell id="lfPdQ3ZHWV3x0kOP0yHL-6" value="手机号一键登录" style="rounded=0;whiteSpace=wrap;html=1;" vertex="1" parent="1">
          <mxGeometry x="420" y="80" width="210" height="60" as="geometry" />
        </mxCell>
        <mxCell id="lfPdQ3ZHWV3x0kOP0yHL-7" value="三方登录(qq、微信、微博)" style="rounded=0;whiteSpace=wrap;html=1;" vertex="1" parent="1">
          <mxGeometry x="680" y="80" width="220" height="60" as="geometry" />
        </mxCell>
        <mxCell id="lfPdQ3ZHWV3x0kOP0yHL-11" value="" style="strokeWidth=2;html=1;shape=mxgraph.flowchart.annotation_2;align=left;labelPosition=right;pointerEvents=1;rotation=-90;" vertex="1" parent="1">
          <mxGeometry x="484.69" y="-110.94" width="80.63" height="585.63" as="geometry" />
        </mxCell>
        <mxCell id="lfPdQ3ZHWV3x0kOP0yHL-17" style="edgeStyle=orthogonalEdgeStyle;rounded=0;orthogonalLoop=1;jettySize=auto;html=1;" edge="1" parent="1" source="lfPdQ3ZHWV3x0kOP0yHL-12" target="lfPdQ3ZHWV3x0kOP0yHL-13">
          <mxGeometry relative="1" as="geometry" />
        </mxCell>
        <mxCell id="lfPdQ3ZHWV3x0kOP0yHL-18" style="edgeStyle=orthogonalEdgeStyle;rounded=0;orthogonalLoop=1;jettySize=auto;html=1;" edge="1" parent="1" source="lfPdQ3ZHWV3x0kOP0yHL-12" target="lfPdQ3ZHWV3x0kOP0yHL-14">
          <mxGeometry relative="1" as="geometry" />
        </mxCell>
        <mxCell id="lfPdQ3ZHWV3x0kOP0yHL-12" value="用户登录接口" style="rounded=0;whiteSpace=wrap;html=1;" vertex="1" parent="1">
          <mxGeometry x="370" y="220" width="310" height="60" as="geometry" />
        </mxCell>
        <mxCell id="lfPdQ3ZHWV3x0kOP0yHL-24" style="edgeStyle=orthogonalEdgeStyle;rounded=0;orthogonalLoop=1;jettySize=auto;html=1;" edge="1" parent="1" source="lfPdQ3ZHWV3x0kOP0yHL-13" target="lfPdQ3ZHWV3x0kOP0yHL-20">
          <mxGeometry relative="1" as="geometry" />
        </mxCell>
        <mxCell id="lfPdQ3ZHWV3x0kOP0yHL-13" value="扬帆用户登录接口" style="rounded=0;whiteSpace=wrap;html=1;" vertex="1" parent="1">
          <mxGeometry x="230" y="330" width="190" height="40" as="geometry" />
        </mxCell>
        <mxCell id="lfPdQ3ZHWV3x0kOP0yHL-29" style="edgeStyle=orthogonalEdgeStyle;rounded=0;orthogonalLoop=1;jettySize=auto;html=1;" edge="1" parent="1" source="lfPdQ3ZHWV3x0kOP0yHL-14" target="lfPdQ3ZHWV3x0kOP0yHL-27">
          <mxGeometry relative="1" as="geometry" />
        </mxCell>
        <mxCell id="lfPdQ3ZHWV3x0kOP0yHL-30" style="edgeStyle=orthogonalEdgeStyle;rounded=0;orthogonalLoop=1;jettySize=auto;html=1;" edge="1" parent="1" source="lfPdQ3ZHWV3x0kOP0yHL-14" target="lfPdQ3ZHWV3x0kOP0yHL-28">
          <mxGeometry relative="1" as="geometry" />
        </mxCell>
        <mxCell id="lfPdQ3ZHWV3x0kOP0yHL-14" value="扬州发布用户登录接口" style="rounded=0;whiteSpace=wrap;html=1;" vertex="1" parent="1">
          <mxGeometry x="620" y="330" width="180" height="40" as="geometry" />
        </mxCell>
        <mxCell id="lfPdQ3ZHWV3x0kOP0yHL-20" value="用户存在（登录成功）" style="rounded=0;whiteSpace=wrap;html=1;" vertex="1" parent="1">
          <mxGeometry x="150" y="425" width="140" height="40" as="geometry" />
        </mxCell>
        <mxCell id="lfPdQ3ZHWV3x0kOP0yHL-34" style="edgeStyle=orthogonalEdgeStyle;rounded=0;orthogonalLoop=1;jettySize=auto;html=1;" edge="1" parent="1" source="lfPdQ3ZHWV3x0kOP0yHL-21" target="lfPdQ3ZHWV3x0kOP0yHL-32">
          <mxGeometry relative="1" as="geometry" />
        </mxCell>
        <mxCell id="lfPdQ3ZHWV3x0kOP0yHL-21" value="用户不存在" style="rounded=0;whiteSpace=wrap;html=1;" vertex="1" parent="1">
          <mxGeometry x="360" y="425" width="120" height="40" as="geometry" />
        </mxCell>
        <mxCell id="lfPdQ3ZHWV3x0kOP0yHL-26" style="edgeStyle=orthogonalEdgeStyle;rounded=0;orthogonalLoop=1;jettySize=auto;html=1;entryX=0.567;entryY=0.073;entryDx=0;entryDy=0;entryPerimeter=0;" edge="1" parent="1" source="lfPdQ3ZHWV3x0kOP0yHL-13" target="lfPdQ3ZHWV3x0kOP0yHL-21">
          <mxGeometry relative="1" as="geometry" />
        </mxCell>
        <mxCell id="lfPdQ3ZHWV3x0kOP0yHL-35" style="edgeStyle=orthogonalEdgeStyle;rounded=0;orthogonalLoop=1;jettySize=auto;html=1;" edge="1" parent="1" source="lfPdQ3ZHWV3x0kOP0yHL-27" target="lfPdQ3ZHWV3x0kOP0yHL-33">
          <mxGeometry relative="1" as="geometry" />
        </mxCell>
        <mxCell id="lfPdQ3ZHWV3x0kOP0yHL-27" value="用户存在（登录成功）" style="rounded=0;whiteSpace=wrap;html=1;" vertex="1" parent="1">
          <mxGeometry x="540" y="425" width="140" height="40" as="geometry" />
        </mxCell>
        <mxCell id="lfPdQ3ZHWV3x0kOP0yHL-44" style="edgeStyle=orthogonalEdgeStyle;rounded=0;orthogonalLoop=1;jettySize=auto;html=1;" edge="1" parent="1" source="lfPdQ3ZHWV3x0kOP0yHL-28" target="lfPdQ3ZHWV3x0kOP0yHL-43">
          <mxGeometry relative="1" as="geometry" />
        </mxCell>
        <mxCell id="lfPdQ3ZHWV3x0kOP0yHL-28" value="用户不存在" style="rounded=0;whiteSpace=wrap;html=1;" vertex="1" parent="1">
          <mxGeometry x="750" y="425" width="120" height="40" as="geometry" />
        </mxCell>
        <mxCell id="lfPdQ3ZHWV3x0kOP0yHL-45" style="edgeStyle=orthogonalEdgeStyle;rounded=0;orthogonalLoop=1;jettySize=auto;html=1;" edge="1" parent="1" source="lfPdQ3ZHWV3x0kOP0yHL-32" target="lfPdQ3ZHWV3x0kOP0yHL-39">
          <mxGeometry relative="1" as="geometry" />
        </mxCell>
        <mxCell id="lfPdQ3ZHWV3x0kOP0yHL-32" value="用户注册" style="rounded=0;whiteSpace=wrap;html=1;" vertex="1" parent="1">
          <mxGeometry x="360" y="580" width="120" height="50" as="geometry" />
        </mxCell>
        <mxCell id="lfPdQ3ZHWV3x0kOP0yHL-46" style="edgeStyle=orthogonalEdgeStyle;rounded=0;orthogonalLoop=1;jettySize=auto;html=1;" edge="1" parent="1" source="lfPdQ3ZHWV3x0kOP0yHL-33" target="lfPdQ3ZHWV3x0kOP0yHL-39">
          <mxGeometry relative="1" as="geometry" />
        </mxCell>
        <mxCell id="lfPdQ3ZHWV3x0kOP0yHL-33" value="用户数据同步" style="rounded=0;whiteSpace=wrap;html=1;" vertex="1" parent="1">
          <mxGeometry x="537.66" y="580" width="144.68" height="50" as="geometry" />
        </mxCell>
        <mxCell id="lfPdQ3ZHWV3x0kOP0yHL-39" value="" style="rounded=0;whiteSpace=wrap;html=1;" vertex="1" parent="1">
          <mxGeometry x="40" y="680" width="1000" height="130" as="geometry" />
        </mxCell>
        <mxCell id="lfPdQ3ZHWV3x0kOP0yHL-40" value="" style="shape=cylinder3;whiteSpace=wrap;html=1;boundedLbl=1;backgroundOutline=1;size=15;" vertex="1" parent="1">
          <mxGeometry x="350" y="690" width="60" height="80" as="geometry" />
        </mxCell>
        <mxCell id="lfPdQ3ZHWV3x0kOP0yHL-41" value="" style="shape=cylinder3;whiteSpace=wrap;html=1;boundedLbl=1;backgroundOutline=1;size=15;" vertex="1" parent="1">
          <mxGeometry x="530" y="690" width="60" height="80" as="geometry" />
        </mxCell>
        <mxCell id="lfPdQ3ZHWV3x0kOP0yHL-42" value="" style="shape=cylinder3;whiteSpace=wrap;html=1;boundedLbl=1;backgroundOutline=1;size=15;" vertex="1" parent="1">
          <mxGeometry x="720" y="690" width="60" height="80" as="geometry" />
        </mxCell>
        <mxCell id="lfPdQ3ZHWV3x0kOP0yHL-47" style="edgeStyle=orthogonalEdgeStyle;rounded=0;orthogonalLoop=1;jettySize=auto;html=1;entryX=0.5;entryY=0;entryDx=0;entryDy=0;" edge="1" parent="1" source="lfPdQ3ZHWV3x0kOP0yHL-43" target="lfPdQ3ZHWV3x0kOP0yHL-39">
          <mxGeometry relative="1" as="geometry" />
        </mxCell>
        <mxCell id="lfPdQ3ZHWV3x0kOP0yHL-43" value="用户注册" style="rounded=0;whiteSpace=wrap;html=1;" vertex="1" parent="1">
          <mxGeometry x="745" y="580" width="130" height="50" as="geometry" />
        </mxCell>
      </root>
    </mxGraphModel>
  </diagram>
</mxfile>
